<svg id="Capa_1" data-name="Capa 1" xmlns="http://www.w3.org/2000/svg" viewBox="0 0 19.38 21.27"><defs><style>.cls-1{fill:#7c6aed;}.cls-2{fill:#91abea;}</style></defs><title>logomini_vector</title><path class="cls-1" d="M1019.62,1186.31c-1.56,4.29-3,8.22-4.42,12.15-.92,2.53-.91,2.54-3.62,2.53-2,0-1.91.19-1.18-1.75,2.34-6.2,4.7-12.39,7-18.59a1.1,1.1,0,0,1,1.2-.86c2.8,0,2.81-.06,3.79,2.5,2.23,5.81,4.43,11.63,6.67,17.44.36.94.33,1.31-.85,1.29-3.19,0-3.2,0-4.3-3C1022.53,1194.26,1021.14,1190.44,1019.62,1186.31Z" transform="translate(-1009.91 -1179.78)"/><path class="cls-2" d="M1019.66,1201.05l-3.27-5.07h6.49Z" transform="translate(-1009.91 -1179.78)"/></svg>